<?xml version="1.0" encoding="UTF-8" standalone="no"?>
<!-- Generator: Adobe Illustrator 14.0.0, SVG Export Plug-In . SVG Version: 6.00 Build 43363)  -->
<svg
   xmlns:dc="http://purl.org/dc/elements/1.1/"
   xmlns:cc="http://creativecommons.org/ns#"
   xmlns:rdf="http://www.w3.org/1999/02/22-rdf-syntax-ns#"
   xmlns:svg="http://www.w3.org/2000/svg"
   xmlns="http://www.w3.org/2000/svg"
   xmlns:sodipodi="http://sodipodi.sourceforge.net/DTD/sodipodi-0.dtd"
   xmlns:inkscape="http://www.inkscape.org/namespaces/inkscape"
   version="1.1"
   id="Layer_1"
   x="0px"
   y="0px"
   width="612px"
   height="792px"
   viewBox="0 0 612 792"
   enable-background="new 0 0 612 792"
   xml:space="preserve"
   sodipodi:version="0.32"
   inkscape:version="0.46"
   sodipodi:docname="body.svg"
   inkscape:output_extension="org.inkscape.output.svg.inkscape"><metadata
   id="metadata24"><rdf:RDF><cc:Work
       rdf:about=""><dc:format>image/svg+xml</dc:format><dc:type
         rdf:resource="http://purl.org/dc/dcmitype/StillImage" /></cc:Work></rdf:RDF></metadata><defs
   id="defs22"><inkscape:perspective
     sodipodi:type="inkscape:persp3d"
     inkscape:vp_x="0 : 396 : 1"
     inkscape:vp_y="0 : 1000 : 0"
     inkscape:vp_z="612 : 396 : 1"
     inkscape:persp3d-origin="306 : 264 : 1"
     id="perspective26" /></defs><sodipodi:namedview
   inkscape:window-height="772"
   inkscape:window-width="1216"
   inkscape:pageshadow="2"
   inkscape:pageopacity="0.0"
   guidetolerance="10.0"
   gridtolerance="10.0"
   objecttolerance="10.0"
   borderopacity="1.0"
   bordercolor="#666666"
   pagecolor="#ffffff"
   id="base"
   showgrid="false"
   inkscape:zoom="0.8321004"
   inkscape:cx="217.851"
   inkscape:cy="423.33263"
   inkscape:window-x="3"
   inkscape:window-y="25"
   inkscape:current-layer="body" />
<rect
   x="12.870778"
   y="35.92255"
   clip-rule="evenodd"
   width="614.91589"
   height="678.17578"
   id="background"
   style="fill:#2b3990;fill-rule:evenodd" /><path
   clip-rule="evenodd"
   d="M 371.32746,369.07501 C 366.70046,343.18301 361.98546,328.74401 358.23746,319.16901 L 327.87346,319.16901 L 327.87346,409.16501 L 370.79046,409.16501 C 371.50146,390.38301 371.81146,371.78201 371.32746,369.07501 z"
   id="hip_r"
   style="fill:#ffff00;fill-rule:evenodd" /><g
   id="body"><path
     style="fill:#ffffff;fill-rule:evenodd"
     id="body1"
     d="M 303.64389,386.78145 C 304.33689,382.97545 306.91689,381.70745 306.52289,377.66145 C 306.15989,373.93945 303.68089,369.99545 302.44289,365.90145 C 301.34789,362.28145 299.15589,356.68545 299.08289,353.18145 C 299.04289,351.26345 299.77989,349.31545 299.32289,347.66145 C 297.26789,340.23045 296.83489,328.50345 297.64289,318.62145 C 298.81089,304.33145 296.53689,289.80945 294.28289,277.34145 C 292.42389,267.05645 288.28689,258.25345 287.80389,248.54145 C 287.24089,237.26545 278.39089,227.34945 277.87989,216.07745 C 277.76889,213.63045 276.52389,210.25445 276.69289,207.93045 C 277.10089,202.32645 273.56289,188.75245 269.69289,184.93045 C 261.53589,176.87345 252.69889,175.37145 246.35989,171.59745 C 235.44289,165.09745 230.99389,164.34745 230.99389,164.34745 C 223.69389,162.34745 224.28589,149.10645 224.99389,144.14145 C 228.76189,146.21345 233.53389,147.28145 233.15389,153.50145 C 236.55289,149.83445 232.11689,145.18545 230.27389,143.90145 C 234.25689,143.07745 236.75289,145.71445 239.39389,147.02145 C 238.17089,143.84345 234.13189,142.20345 232.67389,140.06145 C 234.54589,140.17345 236.02389,139.89145 236.99389,139.10145 C 232.88989,139.12445 231.79689,136.13845 230.99389,132.86145 C 234.52989,136.21045 243.74689,136.73845 240.83389,129.02145 C 240.86989,133.49145 236.02089,133.13245 236.75389,128.54145 C 237.21889,125.62945 242.22289,123.19745 241.79389,121.34145 C 241.43989,122.26045 240.09389,123.22045 238.91389,122.54145 C 240.14689,118.68445 241.14189,113.95145 238.19389,111.26145 C 239.76289,110.35045 239.69289,107.80045 240.59389,106.22145 C 242.31389,107.99445 241.69989,113.07745 241.55389,115.34145 C 243.62289,112.74245 242.68089,106.94145 241.55389,104.06145 C 244.84789,104.60845 244.45489,109.24945 243.95389,111.74145 C 247.52789,106.84045 242.95889,102.63445 239.15389,100.94145 C 240.53789,98.633446 240.39589,96.028444 239.15389,93.501444 C 237.94589,91.045444 235.36789,90.063444 235.55389,88.221444 C 235.69789,86.792444 237.10389,86.297444 239.15389,86.061444 C 237.20289,85.125444 235.91589,86.782444 234.59389,87.261444 C 232.80089,83.454444 227.62689,83.028444 225.23389,79.821444 C 225.26489,77.470444 224.65789,75.758444 223.55389,74.541444 C 222.71889,74.056444 224.39489,76.538444 224.03389,77.901444 C 220.32889,72.675444 211.10489,75.132444 206.99389,69.981444 C 205.61689,68.256444 205.23489,66.372444 204.11389,63.261444 C 203.48389,67.252444 206.04589,69.327444 206.99389,70.941444 C 201.76089,69.862444 205.55289,69.563444 201.52689,70.728444 L 201.66989,162.54645 C 201.73989,162.33045 201.80989,162.11345 201.88389,161.90045 C 201.82989,162.47145 201.75489,163.02845 201.66989,163.57945 L 201.66989,376.83445 C 202.91789,376.81945 204.01089,377.09745 204.76389,378.14045 L 204.06289,380.95045 C 201.91989,395.37345 205.71489,407.92845 209.34389,420.30945 C 211.70989,428.38745 215.67989,436.07945 217.50289,444.78945 C 220.30489,458.16845 218.98789,475.27545 224.22289,487.02945 C 226.46689,492.06645 228.03389,495.86545 227.82389,502.14845 C 227.54089,510.59145 225.95989,518.90045 226.38389,528.54845 C 226.94089,541.21445 231.70589,552.69845 234.78389,564.54845 C 237.90689,576.57345 240.76589,589.26345 241.50389,602.22845 C 241.64589,604.72845 241.43289,607.36345 241.26489,609.66945 C 241.20389,610.40945 240.39989,610.40545 240.06389,610.86845 C 241.54589,618.59145 235.64989,621.60245 236.22389,628.38845 C 236.58889,632.70145 241.18489,636.62845 241.50389,641.58945 C 241.69989,644.64445 241.07289,647.99545 239.58389,651.18945 C 240.09689,658.50345 235.68489,668.51545 239.82389,674.46845 C 246.36989,679.49145 263.26989,680.71245 268.38389,673.74945 C 269.48889,672.24345 270.61289,668.82745 270.54389,666.54845 C 270.44289,663.17945 266.74889,660.20845 265.98389,655.74945 C 264.88589,649.34945 267.53389,642.11445 264.54389,638.46845 C 264.23889,636.28045 264.62789,634.10945 264.06389,632.22845 C 263.68089,630.95145 262.67689,630.35945 262.38389,629.34945 C 261.36289,625.82445 263.12189,623.39045 263.34489,619.74945 C 263.65789,618.71445 262.66289,618.98945 262.38389,618.54845 C 262.90689,614.06845 261.77689,609.69345 261.42489,605.34945 C 260.60689,595.24545 263.04589,582.39445 263.58389,570.54845 C 264.04189,560.45645 263.72189,550.13045 264.54389,540.06945 C 265.66489,526.36245 264.30989,513.81345 261.90389,503.10845 C 260.75789,498.01445 258.98589,493.00145 258.30289,487.74945 C 257.71489,483.22245 258.28489,478.17345 258.06289,473.10845 C 257.75789,466.16945 256.36889,458.89745 256.86389,451.98945 C 257.23789,446.76845 258.89689,441.66945 259.50389,436.38745 C 261.46189,419.33045 263.10389,364.40145 262.24389,359.59445 C 251.60989,300.09445 240.51389,301.06545 241.74389,282.59445 C 242.04489,278.07145 240.56289,263.53045 242.35989,259.59445 C 247.88289,247.50045 249.15189,241.88145 254.35989,229.99545 C 255.04989,239.36845 263.80389,246.40345 264.19289,255.26145 C 264.45789,261.27345 267.31389,269.49745 268.12289,275.89945 C 268.49489,278.83545 270.38489,281.76045 271.00289,285.01945 C 271.65689,288.46845 271.94189,292.04045 272.68289,295.33945 C 275.73189,308.90245 279.71289,319.72645 283.24389,333.25945 C 284.91089,339.64945 286.78289,348.00445 285.88489,354.85945 C 285.38489,358.67145 282.81089,362.75745 282.52389,367.33945 C 282.25589,371.63145 283.54889,375.07845 284.20489,379.57945 C 283.38789,380.36145 282.32489,380.89945 281.80589,381.97945 C 282.55889,383.46545 285.38389,382.88145 284.92489,385.57945 C 283.57689,385.50545 281.90489,384.68345 280.60489,385.33945 C 280.05189,385.90545 280.20489,387.17845 279.64589,387.73945 C 281.33989,388.84445 283.71789,389.26745 285.40589,390.37945 C 284.92389,391.09745 285.26989,392.64445 285.16589,393.73945 C 283.73389,393.22345 281.64789,392.72445 279.88689,393.26045 C 278.78189,393.83445 279.15489,395.88545 278.44689,396.85845 C 283.68389,397.74145 289.25489,399.91145 294.76589,397.81945 C 294.00089,402.57345 284.97989,403.55545 288.52589,408.85845 C 290.21389,408.44445 291.23689,406.82945 292.84589,405.73945 C 295.73989,403.78045 302.20189,400.17145 303.40689,397.09845 C 304.21389,395.03445 302.98789,390.37245 303.64389,386.78145 z"
     clip-rule="evenodd" /><path
     style="fill:#808000;fill-rule:evenodd;fill-opacity:1"
     id="shoulder"
     d="M 279.56889,224.26445 C 278.54789,221.37545 277.79789,218.44245 277.65989,215.41045 C 277.54889,212.96345 276.30389,209.58745 276.47289,207.26345 C 276.88089,201.65945 273.34289,188.08545 269.47289,184.26345 C 261.31589,176.20645 252.47889,174.70445 246.13989,170.93045 L 246.71189,224.26545 L 279.56889,224.26545 L 279.56889,224.26445 z"
     clip-rule="evenodd" /><path
     style="fill:#808000;fill-rule:evenodd;fill-opacity:1"
     id="elbow"
     d="M 270.68289,283.93545 C 271.33689,287.38445 271.62189,290.95645 272.36289,294.25545 C 272.63589,295.47545 272.92189,296.66745 273.20889,297.84645 L 297.07789,297.84645 C 296.39189,290.29245 295.17789,282.97445 293.96289,276.25545 C 293.04689,271.18845 291.57789,266.48045 290.26589,261.84645 L 265.06089,261.84645 C 266.02889,266.23245 267.30489,270.86945 267.80289,274.81545 C 268.17489,277.75045 270.06389,280.67645 270.68289,283.93545 z"
     clip-rule="evenodd" /><path
     style="fill:#808000;fill-rule:evenodd;fill-opacity:1"
     id="wirst"
     d="M 285.70189,353.85845 C 285.38089,356.30545 284.20989,358.86845 283.33289,361.60045 L 301.19289,361.60045 C 300.13189,358.39745 298.95389,354.73345 298.90089,352.17845 C 298.85989,350.26045 299.59789,348.31245 299.14089,346.65845 C 298.03789,342.67045 297.40689,337.44245 297.17889,331.92945 L 282.97289,331.92945 C 283.00189,332.03945 283.03189,332.14745 283.06089,332.25845 C 284.72689,338.64845 286.59989,347.00345 285.70189,353.85845 z"
     clip-rule="evenodd" /><path
     style="fill:#808000;fill-rule:evenodd;fill-opacity:1"
     id="ankle"
     d="M 240.92989,610.00045 C 240.86889,610.74045 240.06489,610.73645 239.72889,611.19945 C 240.81489,616.85745 237.94689,619.98945 236.55789,623.92745 L 262.30389,623.92745 C 262.60289,622.73845 262.92289,621.50145 263.00989,620.08045 C 263.32289,619.04545 262.32789,619.32045 262.04889,618.87945 C 262.57189,614.39945 261.44189,610.02445 261.08989,605.68045 C 260.52189,598.66845 261.52289,590.33145 262.36889,581.92745 L 238.41289,581.92745 C 239.74989,588.68645 240.77189,595.58045 241.16989,602.55945 C 241.31089,605.05945 241.09789,607.69445 240.92989,610.00045 z"
     clip-rule="evenodd" /><path
     style="fill:#808000;fill-rule:evenodd;fill-opacity:1"
     id="knee"
     d="M 227.56889,501.81645 C 227.53689,502.77245 227.48389,503.72645 227.42289,504.68145 L 262.05989,504.68145 C 261.92689,504.04045 261.78989,503.40545 261.64889,502.77745 C 260.50289,497.68345 258.73089,492.67045 258.04789,487.41845 C 257.45989,482.89145 258.02989,477.84245 257.80789,472.77745 C 257.55489,467.00745 256.56589,461.01245 256.51889,455.18345 L 218.75589,455.18345 C 219.80289,466.15245 220.05789,477.91745 223.96789,486.69745 C 226.21289,491.73445 227.77889,495.53345 227.56889,501.81645 z"
     clip-rule="evenodd" /><path
     style="fill:#808000;fill-rule:evenodd;fill-opacity:1"
     id="hip"
     d="M 262.01889,359.59645 C 257.39189,333.70445 252.67689,319.26545 248.92889,309.69045 L 218.56489,309.69045 L 218.56489,399.68645 L 261.48189,399.68645 C 262.19289,380.90445 262.50289,362.30345 262.01889,359.59645 z"
     clip-rule="evenodd" /><path
     style="fill:#ffffff;fill-rule:evenodd"
     id="path2396"
     d="M 105.81911,387.22558 C 105.14834,383.41958 102.65104,382.15158 103.03241,378.10558 C 103.38377,374.38358 105.7833,370.43958 106.98162,366.34558 C 108.04149,362.72558 110.16322,357.12958 110.23388,353.62558 C 110.2726,351.70758 109.55923,349.75958 110.00157,348.10558 C 111.99069,340.67458 112.4098,328.94758 111.6277,319.06558 C 110.49716,304.77558 112.69825,290.25358 114.87999,277.78558 C 116.6794,267.50058 120.68374,258.69758 121.15128,248.98558 C 121.69622,237.70958 130.26248,227.79358 130.7571,216.52158 C 130.86454,214.07458 132.06963,210.69858 131.90604,208.37458 C 131.51112,202.77058 134.9357,189.19658 138.68162,185.37458 C 146.5771,177.31758 155.13078,175.81558 161.26654,172.04158 C 171.83354,165.54158 176.1399,164.79158 176.1399,164.79158 C 183.20586,162.79158 182.63283,149.55058 181.94753,144.58558 C 178.30033,146.65758 173.68133,147.72558 174.04915,153.94558 C 170.75913,150.27858 175.0529,145.62958 176.83682,144.34558 C 172.98151,143.52158 170.56554,146.15858 168.00921,147.46558 C 169.193,144.28758 173.10251,142.64758 174.51377,140.50558 C 172.70177,140.61758 171.27116,140.33558 170.33226,139.54558 C 174.30468,139.56858 175.36264,136.58258 176.1399,133.30558 C 172.71727,136.65458 163.79576,137.18258 166.61537,129.46558 C 166.58053,133.93558 171.27407,133.57658 170.56456,128.98558 C 170.11448,126.07358 165.2709,123.64158 165.68614,121.78558 C 166.02881,122.70458 167.33165,123.66458 168.47382,122.98558 C 167.28036,119.12858 166.31724,114.39558 169.17074,111.70558 C 167.65203,110.79458 167.71981,108.24458 166.84768,106.66558 C 165.18283,108.43858 165.77713,113.52158 165.91846,115.78558 C 163.9158,113.18658 164.82759,107.38558 165.91846,104.50558 C 162.73006,105.05258 163.11048,109.69358 163.59542,112.18558 C 160.13599,107.28458 164.5585,103.07858 168.24151,101.38558 C 166.90188,99.077576 167.03933,96.472576 168.24151,93.945573 C 169.41078,91.489573 171.90612,90.507573 171.72609,88.665573 C 171.58671,87.236573 170.22578,86.741573 168.24151,86.505573 C 170.12996,85.569573 171.37569,87.226573 172.65532,87.705573 C 174.39084,83.898573 179.39895,83.472573 181.71523,80.265573 C 181.68523,77.914573 182.27275,76.202573 183.34136,74.985573 C 184.1496,74.500573 182.52732,76.982573 182.87676,78.345573 C 186.46297,73.119573 195.39125,75.576573 199.37044,70.425573 C 200.7033,68.700573 201.07303,66.816573 202.1581,63.705573 C 202.76792,67.696573 200.28805,69.771573 199.37044,71.385573 C 204.43565,70.306573 200.76523,70.007573 204.66216,71.172573 L 204.52375,162.99058 C 204.45598,162.77458 204.38824,162.55758 204.31661,162.34458 C 204.36887,162.91558 204.44148,163.47258 204.52375,164.02358 L 204.52375,377.27858 C 203.31575,377.26358 202.2578,377.54158 201.52895,378.58458 L 202.20747,381.39458 C 204.28177,395.81758 200.60844,408.37258 197.09578,420.75358 C 194.80565,428.83158 190.96292,436.52358 189.19836,445.23358 C 186.48621,458.61258 187.76098,475.71958 182.69382,487.47358 C 180.52176,492.51058 179.005,496.30958 179.20825,502.59258 C 179.48218,511.03558 181.01251,519.34458 180.6021,528.99258 C 180.06295,541.65858 175.45072,553.14258 172.47141,564.99258 C 169.44852,577.01758 166.68119,589.70758 165.96685,602.67258 C 165.82942,605.17258 166.03558,607.80758 166.1982,610.11358 C 166.25724,610.85358 167.03546,610.84958 167.36069,611.31258 C 165.9262,619.03558 171.63318,622.04658 171.07757,628.83258 C 170.72427,633.14558 166.27563,637.07258 165.96685,642.03358 C 165.77713,645.08858 166.38403,648.43958 167.82529,651.63358 C 167.32876,658.94758 171.5993,668.95958 167.59299,674.91258 C 161.25686,679.93558 144.89869,681.15658 139.94865,674.19358 C 138.87907,672.68758 137.79111,669.27158 137.8579,666.99258 C 137.95566,663.62358 141.53123,660.65258 142.27169,656.19358 C 143.3345,649.79358 140.77138,642.55858 143.66553,638.91258 C 143.96075,636.72458 143.58423,634.55358 144.13014,632.67258 C 144.50086,631.39558 145.47267,630.80358 145.75629,629.79358 C 146.74456,626.26858 145.04193,623.83458 144.82611,620.19358 C 144.52313,619.15858 145.48623,619.43358 145.75629,618.99258 C 145.25004,614.51258 146.34383,610.13758 146.68454,605.79358 C 147.47632,595.68958 145.11551,582.83858 144.59476,570.99258 C 144.15145,560.90058 144.46118,550.57458 143.66553,540.51358 C 142.58047,526.80658 143.89203,514.25758 146.2209,503.55258 C 147.33014,498.45858 149.04533,493.44558 149.70645,488.19358 C 150.27559,483.66658 149.72386,478.61758 149.93874,473.55258 C 150.23396,466.61358 151.57843,459.34158 151.09932,452.43358 C 150.7373,447.21258 149.13149,442.11358 148.54396,436.83158 C 146.64873,419.77458 145.05937,364.84558 145.8918,360.03858 C 156.18487,300.53858 166.92511,301.50958 165.73456,283.03858 C 165.44319,278.51558 166.87769,263.97458 165.13831,260.03858 C 159.79237,247.94458 158.56406,242.32558 153.52303,230.43958 C 152.85515,239.81258 144.38182,246.84758 144.00529,255.70558 C 143.74878,261.71758 140.98434,269.94158 140.20129,276.34358 C 139.84121,279.27958 138.01179,282.20458 137.41362,285.46358 C 136.78058,288.91258 136.50472,292.48458 135.78749,295.78358 C 132.83622,309.34658 128.98287,320.17058 125.56507,333.70358 C 123.95152,340.09358 122.13953,348.44858 123.00875,355.30358 C 123.4927,359.11558 125.98419,363.20158 126.26198,367.78358 C 126.52139,372.07558 125.26984,375.52258 124.63489,380.02358 C 125.42569,380.80558 126.45461,381.34358 126.95698,382.42358 C 126.22811,383.90958 123.49369,383.32558 123.93798,386.02358 C 125.24275,385.94958 126.86114,385.12758 128.11946,385.78358 C 128.65475,386.34958 128.50664,387.62258 129.04771,388.18358 C 127.40804,389.28858 125.10628,389.71158 123.47238,390.82358 C 123.93892,391.54158 123.60403,393.08858 123.7047,394.18358 C 125.09077,393.66758 127.10991,393.16858 128.81445,393.70458 C 129.88401,394.27858 129.52297,396.32958 130.20828,397.30258 C 125.13917,398.18558 119.74679,400.35558 114.41248,398.26358 C 115.15295,403.01758 123.88472,403.99958 120.45242,409.30258 C 118.81854,408.88858 117.82833,407.27358 116.27092,406.18358 C 113.46971,404.22458 107.21488,400.61558 106.04852,397.54258 C 105.26739,395.47858 106.45408,390.81658 105.81911,387.22558 z"
     clip-rule="evenodd" /><g
     transform="matrix(0.2089315,0,0,0.1861791,345.92613,72.98942)"
     id="g2421"><path
       clip-rule="evenodd"
       d="M 577.17325,382.1964 C 577.86625,378.3904 580.44625,377.1224 580.05225,373.0764 C 579.68925,369.3544 577.21025,365.4104 575.97225,361.3164 C 574.87725,357.6964 572.68525,352.1004 572.61225,348.5964 C 572.57225,346.6784 573.30925,344.7304 572.85225,343.0764 C 570.79725,335.6454 570.36425,323.9184 571.17225,314.0364 C 572.34025,299.7464 570.06625,285.2244 567.81225,272.7564 C 565.95325,262.4714 561.81625,253.6684 561.33325,243.9564 C 560.77025,232.6804 551.92025,222.7644 551.40925,211.4924 C 551.29825,209.0454 550.05325,205.6694 550.22225,203.3454 C 550.63025,197.7414 547.09225,184.1674 543.22225,180.3454 C 535.06525,172.2884 526.22825,170.7864 519.88925,167.0124 C 508.97225,160.5124 504.52325,159.7624 504.52325,159.7624 C 497.22325,157.7624 497.81525,144.5214 498.52325,139.5564 C 502.29125,141.6284 507.06325,142.6964 506.68325,148.9164 C 510.08225,145.2494 505.64625,140.6004 503.80325,139.3164 C 507.78625,138.4924 510.28225,141.1294 512.92325,142.4364 C 511.70025,139.2584 507.66125,137.6184 506.20325,135.4764 C 508.07525,135.5884 509.55325,135.3064 510.52325,134.5164 C 506.41925,134.5394 505.32625,131.5534 504.52325,128.2764 C 508.05925,131.6254 517.27625,132.1534 514.36325,124.4364 C 514.39925,128.9064 509.55025,128.5474 510.28325,123.9564 C 510.74825,121.0444 515.75225,118.6124 515.32325,116.7564 C 514.96925,117.6754 513.62325,118.6354 512.44325,117.9564 C 513.67625,114.0994 514.67125,109.3664 511.72325,106.6764 C 513.29225,105.7654 513.22225,103.2154 514.12325,101.6364 C 515.84325,103.4094 515.22925,108.4924 515.08325,110.7564 C 517.15225,108.1574 516.21025,102.3564 515.08325,99.4764 C 518.37725,100.0234 517.98425,104.6644 517.48325,107.1564 C 521.05725,102.2554 516.48825,98.0494 512.68325,96.3564 C 514.06725,94.0484 513.92525,91.443398 512.68325,88.916398 C 511.47525,86.460398 508.89725,85.478398 509.08325,83.636398 C 509.22725,82.207398 510.63325,81.712398 512.68325,81.476398 C 510.73225,80.540398 509.44525,82.197398 508.12325,82.676398 C 506.33025,78.869398 501.15625,78.443398 498.76325,75.236398 C 498.79425,72.885398 498.18725,71.173398 497.08325,69.956398 C 496.24825,69.471398 497.92425,71.953398 497.56325,73.316398 C 493.85825,68.090398 484.63425,70.547398 480.52325,65.396398 C 479.14625,63.671398 478.76425,61.787398 477.64325,58.676398 C 477.01325,62.667398 479.57525,64.742398 480.52325,66.356398 C 475.29025,65.277398 479.08225,64.978398 475.05625,66.143398 L 475.19925,157.9614 C 475.26925,157.7454 475.33925,157.5284 475.41325,157.3154 C 475.35925,157.8864 475.28425,158.4434 475.19925,158.9944 L 475.19925,372.2494 C 476.44725,372.2344 477.54025,372.5124 478.29325,373.5554 L 477.59225,376.3654 C 475.44925,390.7884 479.24425,403.3434 482.87325,415.7244 C 485.23925,423.8024 489.20925,431.4944 491.03225,440.2044 C 493.83425,453.5834 492.51725,470.6904 497.75225,482.4444 C 499.99625,487.4814 501.56325,491.2804 501.35325,497.5634 C 501.07025,506.0064 499.48925,514.3154 499.91325,523.9634 C 500.47025,536.6294 505.23525,548.1134 508.31325,559.9634 C 511.43625,571.9884 514.29525,584.6784 515.03325,597.6434 C 515.17525,600.1434 514.96225,602.7784 514.79425,605.0844 C 514.73325,605.8244 513.92925,605.8204 513.59325,606.2834 C 515.07525,614.0064 509.17925,617.0174 509.75325,623.8034 C 510.11825,628.1164 514.71425,632.0434 515.03325,637.0044 C 515.22925,640.0594 514.60225,643.4104 513.11325,646.6044 C 513.62625,653.9184 509.21425,663.9304 513.35325,669.8834 C 519.89925,674.9064 536.79925,676.1274 541.91325,669.1644 C 543.01825,667.6584 544.14225,664.2424 544.07325,661.9634 C 543.97225,658.5944 540.27825,655.6234 539.51325,651.1644 C 538.41525,644.7644 541.06325,637.5294 538.07325,633.8834 C 537.76825,631.6954 538.15725,629.5244 537.59325,627.6434 C 537.21025,626.3664 536.20625,625.7744 535.91325,624.7644 C 534.89225,621.2394 536.65125,618.8054 536.87425,615.1644 C 537.18725,614.1294 536.19225,614.4044 535.91325,613.9634 C 536.43625,609.4834 535.30625,605.1084 534.95425,600.7644 C 534.13625,590.6604 536.57525,577.8094 537.11325,565.9634 C 537.57125,555.8714 537.25125,545.5454 538.07325,535.4844 C 539.19425,521.7774 537.83925,509.2284 535.43325,498.5234 C 534.28725,493.4294 532.51525,488.4164 531.83225,483.1644 C 531.24425,478.6374 531.81425,473.5884 531.59225,468.5234 C 531.28725,461.5844 529.89825,454.3124 530.39325,447.4044 C 530.76725,442.1834 532.42625,437.0844 533.03325,431.8024 C 534.99125,414.7454 536.63325,359.8164 535.77325,355.0094 C 525.13925,295.5094 514.04325,296.4804 515.27325,278.0094 C 515.57425,273.4864 514.09225,258.9454 515.88925,255.0094 C 521.41225,242.9154 522.68125,237.2964 527.88925,225.4104 C 528.57925,234.7834 537.33325,241.8184 537.72225,250.6764 C 537.98725,256.6884 540.84325,264.9124 541.65225,271.3144 C 542.02425,274.2504 543.91425,277.1754 544.53225,280.4344 C 545.18625,283.8834 545.47125,287.4554 546.21225,290.7544 C 549.26125,304.3174 553.24225,315.1414 556.77325,328.6744 C 558.44025,335.0644 560.31225,343.4194 559.41425,350.2744 C 558.91425,354.0864 556.34025,358.1724 556.05325,362.7544 C 555.78525,367.0464 557.07825,370.4934 557.73425,374.9944 C 556.91725,375.7764 555.85425,376.3144 555.33525,377.3944 C 556.08825,378.8804 558.91325,378.2964 558.45425,380.9944 C 557.10625,380.9204 555.43425,380.0984 554.13425,380.7544 C 553.58125,381.3204 553.73425,382.5934 553.17525,383.1544 C 554.86925,384.2594 557.24725,384.6824 558.93525,385.7944 C 558.45325,386.5124 558.79925,388.0594 558.69525,389.1544 C 557.26325,388.6384 555.17725,388.1394 553.41625,388.6754 C 552.31125,389.2494 552.68425,391.3004 551.97625,392.2734 C 557.21325,393.1564 562.78425,395.3264 568.29525,393.2344 C 567.53025,397.9884 558.50925,398.9704 562.05525,404.2734 C 563.74325,403.8594 564.76625,402.2444 566.37525,401.1544 C 569.26925,399.1954 575.73125,395.5864 576.93625,392.5134 C 577.74325,390.4494 576.51725,385.7874 577.17325,382.1964 z"
       id="path2397"
       style="fill:#ffffff;fill-rule:evenodd" /><path
       clip-rule="evenodd"
       d="M 379.34847,382.64053 C 378.6777,378.83453 376.1804,377.56653 376.56177,373.52053 C 376.91313,369.79853 379.31266,365.85453 380.51098,361.76053 C 381.57085,358.14053 383.69258,352.54453 383.76324,349.04053 C 383.80196,347.12253 383.08859,345.17453 383.53093,343.52053 C 385.52005,336.08953 385.93916,324.36253 385.15706,314.48053 C 384.02652,300.19053 386.22761,285.66853 388.40935,273.20053 C 390.20876,262.91553 394.2131,254.11253 394.68064,244.40053 C 395.22558,233.12453 403.79184,223.20853 404.28646,211.93653 C 404.3939,209.48953 405.59899,206.11353 405.4354,203.78953 C 405.04048,198.18553 408.46506,184.61153 412.21098,180.78953 C 420.10646,172.73253 428.66014,171.23053 434.7959,167.45653 C 445.3629,160.95653 449.66926,160.20653 449.66926,160.20653 C 456.73522,158.20653 456.16219,144.96553 455.47689,140.00053 C 451.82969,142.07253 447.21069,143.14053 447.57851,149.36053 C 444.28849,145.69353 448.58226,141.04453 450.36618,139.76053 C 446.51087,138.93653 444.0949,141.57353 441.53857,142.88053 C 442.72236,139.70253 446.63187,138.06253 448.04313,135.92053 C 446.23113,136.03253 444.80052,135.75053 443.86162,134.96053 C 447.83404,134.98353 448.892,131.99753 449.66926,128.72053 C 446.24663,132.06953 437.32512,132.59753 440.14473,124.88053 C 440.10989,129.35053 444.80343,128.99153 444.09392,124.40053 C 443.64384,121.48853 438.80026,119.05653 439.2155,117.20053 C 439.55817,118.11953 440.86101,119.07953 442.00318,118.40053 C 440.80972,114.54353 439.8466,109.81053 442.7001,107.12053 C 441.18139,106.20953 441.24917,103.65953 440.37704,102.08053 C 438.71219,103.85353 439.30649,108.93653 439.44782,111.20053 C 437.44516,108.60153 438.35695,102.80053 439.44782,99.92053 C 436.25942,100.46753 436.63984,105.10853 437.12478,107.60053 C 433.66535,102.69953 438.08786,98.49353 441.77087,96.800531 C 440.43124,94.49253 440.56869,91.88753 441.77087,89.360527 C 442.94014,86.904528 445.43548,85.922527 445.25545,84.080527 C 445.11607,82.651528 443.75514,82.156527 441.77087,81.920527 C 443.65932,80.984527 444.90505,82.641527 446.18468,83.120527 C 447.9202,79.313527 452.92831,78.887527 455.24459,75.680527 C 455.21459,73.329527 455.80211,71.617527 456.87072,70.400527 C 457.67896,69.915527 456.05668,72.397527 456.40612,73.760527 C 459.99233,68.534527 468.92061,70.991527 472.8998,65.840527 C 474.23266,64.115527 474.60239,62.231528 475.68746,59.120528 C 476.29728,63.111528 473.81741,65.186527 472.8998,66.800528 C 477.96501,65.721528 474.29459,65.422527 478.19152,66.587527 L 478.05311,158.40553 C 477.98534,158.18953 477.9176,157.97253 477.84597,157.75953 C 477.89823,158.33053 477.97084,158.88753 478.05311,159.43853 L 478.05311,372.69353 C 476.84511,372.67853 475.78716,372.95653 475.05831,373.99953 L 475.73683,376.80953 C 477.81113,391.23253 474.1378,403.78753 470.62514,416.16853 C 468.33501,424.24653 464.49228,431.93853 462.72772,440.64853 C 460.01557,454.02753 461.29034,471.13453 456.22318,482.88853 C 454.05112,487.92553 452.53436,491.72453 452.73761,498.00753 C 453.01154,506.45053 454.54187,514.75953 454.13146,524.40753 C 453.59231,537.07353 448.98008,548.55753 446.00077,560.40753 C 442.97788,572.43253 440.21055,585.12253 439.49621,598.08753 C 439.35878,600.58753 439.56494,603.22253 439.72756,605.52853 C 439.7866,606.26853 440.56482,606.26453 440.89005,606.72753 C 439.45556,614.45053 445.16254,617.46153 444.60693,624.24753 C 444.25363,628.56053 439.80499,632.48753 439.49621,637.44853 C 439.30649,640.50353 439.91339,643.85453 441.35465,647.04853 C 440.85812,654.36253 445.12866,664.37453 441.12235,670.32753 C 434.78622,675.35053 418.42805,676.57153 413.47801,669.60853 C 412.40843,668.10253 411.32047,664.68653 411.38726,662.40753 C 411.48502,659.03853 415.06059,656.06753 415.80105,651.60853 C 416.86386,645.20853 414.30074,637.97353 417.19489,634.32753 C 417.49011,632.13953 417.11359,629.96853 417.6595,628.08753 C 418.03022,626.81053 419.00203,626.21853 419.28565,625.20853 C 420.27392,621.68353 418.57129,619.24953 418.35547,615.60853 C 418.05249,614.57353 419.01559,614.84853 419.28565,614.40753 C 418.7794,609.92753 419.87319,605.55253 420.2139,601.20853 C 421.00568,591.10453 418.64487,578.25353 418.12412,566.40753 C 417.68081,556.31553 417.99054,545.98953 417.19489,535.92853 C 416.10983,522.22153 417.42139,509.67253 419.75026,498.96753 C 420.8595,493.87353 422.57469,488.86053 423.23581,483.60853 C 423.80495,479.08153 423.25322,474.03253 423.4681,468.96753 C 423.76332,462.02853 425.10779,454.75653 424.62868,447.84853 C 424.26666,442.62753 422.66085,437.52853 422.07332,432.24653 C 420.17809,415.18953 418.58873,360.26053 419.42116,355.45353 C 429.71423,295.95353 440.45447,296.92453 439.26392,278.45353 C 438.97255,273.93053 440.40705,259.38953 438.66767,255.45353 C 433.32173,243.35953 432.09342,237.74053 427.05239,225.85453 C 426.38451,235.22753 417.91118,242.26253 417.53465,251.12053 C 417.27814,257.13253 414.5137,265.35653 413.73065,271.75853 C 413.37057,274.69453 411.54115,277.61953 410.94298,280.87853 C 410.30994,284.32753 410.03408,287.89953 409.31685,291.19853 C 406.36558,304.76153 402.51223,315.58553 399.09443,329.11853 C 397.48088,335.50853 395.66889,343.86353 396.53811,350.71853 C 397.02206,354.53053 399.51355,358.61653 399.79134,363.19853 C 400.05075,367.49053 398.7992,370.93753 398.16425,375.43853 C 398.95505,376.22053 399.98397,376.75853 400.48634,377.83853 C 399.75747,379.32453 397.02305,378.74053 397.46734,381.43853 C 398.77211,381.36453 400.3905,380.54253 401.64882,381.19853 C 402.18411,381.76453 402.036,383.03753 402.57707,383.59853 C 400.9374,384.70353 398.63564,385.12653 397.00174,386.23853 C 397.46828,386.95653 397.13339,388.50353 397.23406,389.59853 C 398.62013,389.08253 400.63927,388.58353 402.34381,389.11953 C 403.41337,389.69353 403.05233,391.74453 403.73764,392.71753 C 398.66853,393.60053 393.27615,395.77053 387.94184,393.67853 C 388.68231,398.43253 397.41408,399.41453 393.98178,404.71753 C 392.3479,404.30353 391.35769,402.68853 389.80028,401.59853 C 386.99907,399.63953 380.74424,396.03053 379.57788,392.95753 C 378.79675,390.89353 379.98344,386.23153 379.34847,382.64053 z"
       id="path2411"
       style="fill:#ffffff;fill-rule:evenodd" /></g><g
     transform="matrix(0.4037469,0,0,0.2876628,252.14354,220.26142)"
     id="g2427"><path
       clip-rule="evenodd"
       d="M 577.17325,382.1964 C 577.86625,378.3904 580.44625,377.1224 580.05225,373.0764 C 579.68925,369.3544 577.21025,365.4104 575.97225,361.3164 C 574.87725,357.6964 572.68525,352.1004 572.61225,348.5964 C 572.57225,346.6784 573.30925,344.7304 572.85225,343.0764 C 570.79725,335.6454 570.36425,323.9184 571.17225,314.0364 C 572.34025,299.7464 570.06625,285.2244 567.81225,272.7564 C 565.95325,262.4714 561.81625,253.6684 561.33325,243.9564 C 560.77025,232.6804 551.92025,222.7644 551.40925,211.4924 C 551.29825,209.0454 550.05325,205.6694 550.22225,203.3454 C 550.63025,197.7414 547.09225,184.1674 543.22225,180.3454 C 535.06525,172.2884 526.22825,170.7864 519.88925,167.0124 C 508.97225,160.5124 504.52325,159.7624 504.52325,159.7624 C 497.22325,157.7624 497.81525,144.5214 498.52325,139.5564 C 502.29125,141.6284 507.06325,142.6964 506.68325,148.9164 C 510.08225,145.2494 505.64625,140.6004 503.80325,139.3164 C 507.78625,138.4924 510.28225,141.1294 512.92325,142.4364 C 511.70025,139.2584 507.66125,137.6184 506.20325,135.4764 C 508.07525,135.5884 509.55325,135.3064 510.52325,134.5164 C 506.41925,134.5394 505.32625,131.5534 504.52325,128.2764 C 508.05925,131.6254 517.27625,132.1534 514.36325,124.4364 C 514.39925,128.9064 509.55025,128.5474 510.28325,123.9564 C 510.74825,121.0444 515.75225,118.6124 515.32325,116.7564 C 514.96925,117.6754 513.62325,118.6354 512.44325,117.9564 C 513.67625,114.0994 514.67125,109.3664 511.72325,106.6764 C 513.29225,105.7654 513.22225,103.2154 514.12325,101.6364 C 515.84325,103.4094 515.22925,108.4924 515.08325,110.7564 C 517.15225,108.1574 516.21025,102.3564 515.08325,99.4764 C 518.37725,100.0234 517.98425,104.6644 517.48325,107.1564 C 521.05725,102.2554 516.48825,98.0494 512.68325,96.3564 C 514.06725,94.0484 513.92525,91.443398 512.68325,88.916398 C 511.47525,86.460398 508.89725,85.478398 509.08325,83.636398 C 509.22725,82.207398 510.63325,81.712398 512.68325,81.476398 C 510.73225,80.540398 509.44525,82.197398 508.12325,82.676398 C 506.33025,78.869398 501.15625,78.443398 498.76325,75.236398 C 498.79425,72.885398 498.18725,71.173398 497.08325,69.956398 C 496.24825,69.471398 497.92425,71.953398 497.56325,73.316398 C 493.85825,68.090398 484.63425,70.547398 480.52325,65.396398 C 479.14625,63.671398 478.76425,61.787398 477.64325,58.676398 C 477.01325,62.667398 479.57525,64.742398 480.52325,66.356398 C 475.29025,65.277398 479.08225,64.978398 475.05625,66.143398 L 475.19925,157.9614 C 475.26925,157.7454 475.33925,157.5284 475.41325,157.3154 C 475.35925,157.8864 475.28425,158.4434 475.19925,158.9944 L 475.19925,372.2494 C 476.44725,372.2344 477.54025,372.5124 478.29325,373.5554 L 477.59225,376.3654 C 475.44925,390.7884 479.24425,403.3434 482.87325,415.7244 C 485.23925,423.8024 489.20925,431.4944 491.03225,440.2044 C 493.83425,453.5834 492.51725,470.6904 497.75225,482.4444 C 499.99625,487.4814 501.56325,491.2804 501.35325,497.5634 C 501.07025,506.0064 499.48925,514.3154 499.91325,523.9634 C 500.47025,536.6294 505.23525,548.1134 508.31325,559.9634 C 511.43625,571.9884 514.29525,584.6784 515.03325,597.6434 C 515.17525,600.1434 514.96225,602.7784 514.79425,605.0844 C 514.73325,605.8244 513.92925,605.8204 513.59325,606.2834 C 515.07525,614.0064 509.17925,617.0174 509.75325,623.8034 C 510.11825,628.1164 514.71425,632.0434 515.03325,637.0044 C 515.22925,640.0594 514.60225,643.4104 513.11325,646.6044 C 513.62625,653.9184 509.21425,663.9304 513.35325,669.8834 C 519.89925,674.9064 536.79925,676.1274 541.91325,669.1644 C 543.01825,667.6584 544.14225,664.2424 544.07325,661.9634 C 543.97225,658.5944 540.27825,655.6234 539.51325,651.1644 C 538.41525,644.7644 541.06325,637.5294 538.07325,633.8834 C 537.76825,631.6954 538.15725,629.5244 537.59325,627.6434 C 537.21025,626.3664 536.20625,625.7744 535.91325,624.7644 C 534.89225,621.2394 536.65125,618.8054 536.87425,615.1644 C 537.18725,614.1294 536.19225,614.4044 535.91325,613.9634 C 536.43625,609.4834 535.30625,605.1084 534.95425,600.7644 C 534.13625,590.6604 536.57525,577.8094 537.11325,565.9634 C 537.57125,555.8714 537.25125,545.5454 538.07325,535.4844 C 539.19425,521.7774 537.83925,509.2284 535.43325,498.5234 C 534.28725,493.4294 532.51525,488.4164 531.83225,483.1644 C 531.24425,478.6374 531.81425,473.5884 531.59225,468.5234 C 531.28725,461.5844 529.89825,454.3124 530.39325,447.4044 C 530.76725,442.1834 532.42625,437.0844 533.03325,431.8024 C 534.99125,414.7454 536.63325,359.8164 535.77325,355.0094 C 525.13925,295.5094 514.04325,296.4804 515.27325,278.0094 C 515.57425,273.4864 514.09225,258.9454 515.88925,255.0094 C 521.41225,242.9154 522.68125,237.2964 527.88925,225.4104 C 528.57925,234.7834 537.33325,241.8184 537.72225,250.6764 C 537.98725,256.6884 540.84325,264.9124 541.65225,271.3144 C 542.02425,274.2504 543.91425,277.1754 544.53225,280.4344 C 545.18625,283.8834 545.47125,287.4554 546.21225,290.7544 C 549.26125,304.3174 553.24225,315.1414 556.77325,328.6744 C 558.44025,335.0644 560.31225,343.4194 559.41425,350.2744 C 558.91425,354.0864 556.34025,358.1724 556.05325,362.7544 C 555.78525,367.0464 557.07825,370.4934 557.73425,374.9944 C 556.91725,375.7764 555.85425,376.3144 555.33525,377.3944 C 556.08825,378.8804 558.91325,378.2964 558.45425,380.9944 C 557.10625,380.9204 555.43425,380.0984 554.13425,380.7544 C 553.58125,381.3204 553.73425,382.5934 553.17525,383.1544 C 554.86925,384.2594 557.24725,384.6824 558.93525,385.7944 C 558.45325,386.5124 558.79925,388.0594 558.69525,389.1544 C 557.26325,388.6384 555.17725,388.1394 553.41625,388.6754 C 552.31125,389.2494 552.68425,391.3004 551.97625,392.2734 C 557.21325,393.1564 562.78425,395.3264 568.29525,393.2344 C 567.53025,397.9884 558.50925,398.9704 562.05525,404.2734 C 563.74325,403.8594 564.76625,402.2444 566.37525,401.1544 C 569.26925,399.1954 575.73125,395.5864 576.93625,392.5134 C 577.74325,390.4494 576.51725,385.7874 577.17325,382.1964 z"
       id="path2429"
       style="fill:#ffffff;fill-rule:evenodd" /><path
       clip-rule="evenodd"
       d="M 379.34847,382.64053 C 378.6777,378.83453 376.1804,377.56653 376.56177,373.52053 C 376.91313,369.79853 379.31266,365.85453 380.51098,361.76053 C 381.57085,358.14053 383.69258,352.54453 383.76324,349.04053 C 383.80196,347.12253 383.08859,345.17453 383.53093,343.52053 C 385.52005,336.08953 385.93916,324.36253 385.15706,314.48053 C 384.02652,300.19053 386.22761,285.66853 388.40935,273.20053 C 390.20876,262.91553 394.2131,254.11253 394.68064,244.40053 C 395.22558,233.12453 403.79184,223.20853 404.28646,211.93653 C 404.3939,209.48953 405.59899,206.11353 405.4354,203.78953 C 405.04048,198.18553 408.46506,184.61153 412.21098,180.78953 C 420.10646,172.73253 428.66014,171.23053 434.7959,167.45653 C 445.3629,160.95653 449.66926,160.20653 449.66926,160.20653 C 456.73522,158.20653 456.16219,144.96553 455.47689,140.00053 C 451.82969,142.07253 447.21069,143.14053 447.57851,149.36053 C 444.28849,145.69353 448.58226,141.04453 450.36618,139.76053 C 446.51087,138.93653 444.0949,141.57353 441.53857,142.88053 C 442.72236,139.70253 446.63187,138.06253 448.04313,135.92053 C 446.23113,136.03253 444.80052,135.75053 443.86162,134.96053 C 447.83404,134.98353 448.892,131.99753 449.66926,128.72053 C 446.24663,132.06953 437.32512,132.59753 440.14473,124.88053 C 440.10989,129.35053 444.80343,128.99153 444.09392,124.40053 C 443.64384,121.48853 438.80026,119.05653 439.2155,117.20053 C 439.55817,118.11953 440.86101,119.07953 442.00318,118.40053 C 440.80972,114.54353 439.8466,109.81053 442.7001,107.12053 C 441.18139,106.20953 441.24917,103.65953 440.37704,102.08053 C 438.71219,103.85353 439.30649,108.93653 439.44782,111.20053 C 437.44516,108.60153 438.35695,102.80053 439.44782,99.92053 C 436.25942,100.46753 436.63984,105.10853 437.12478,107.60053 C 433.66535,102.69953 438.08786,98.49353 441.77087,96.800531 C 440.43124,94.49253 440.56869,91.88753 441.77087,89.360527 C 442.94014,86.904528 445.43548,85.922527 445.25545,84.080527 C 445.11607,82.651528 443.75514,82.156527 441.77087,81.920527 C 443.65932,80.984527 444.90505,82.641527 446.18468,83.120527 C 447.9202,79.313527 452.92831,78.887527 455.24459,75.680527 C 455.21459,73.329527 455.80211,71.617527 456.87072,70.400527 C 457.67896,69.915527 456.05668,72.397527 456.40612,73.760527 C 459.99233,68.534527 468.92061,70.991527 472.8998,65.840527 C 474.23266,64.115527 474.60239,62.231528 475.68746,59.120528 C 476.29728,63.111528 473.81741,65.186527 472.8998,66.800528 C 477.96501,65.721528 474.29459,65.422527 478.19152,66.587527 L 478.05311,158.40553 C 477.98534,158.18953 477.9176,157.97253 477.84597,157.75953 C 477.89823,158.33053 477.97084,158.88753 478.05311,159.43853 L 478.05311,372.69353 C 476.84511,372.67853 475.78716,372.95653 475.05831,373.99953 L 475.73683,376.80953 C 477.81113,391.23253 474.1378,403.78753 470.62514,416.16853 C 468.33501,424.24653 464.49228,431.93853 462.72772,440.64853 C 460.01557,454.02753 461.29034,471.13453 456.22318,482.88853 C 454.05112,487.92553 452.53436,491.72453 452.73761,498.00753 C 453.01154,506.45053 454.54187,514.75953 454.13146,524.40753 C 453.59231,537.07353 448.98008,548.55753 446.00077,560.40753 C 442.97788,572.43253 440.21055,585.12253 439.49621,598.08753 C 439.35878,600.58753 439.56494,603.22253 439.72756,605.52853 C 439.7866,606.26853 440.56482,606.26453 440.89005,606.72753 C 439.45556,614.45053 445.16254,617.46153 444.60693,624.24753 C 444.25363,628.56053 439.80499,632.48753 439.49621,637.44853 C 439.30649,640.50353 439.91339,643.85453 441.35465,647.04853 C 440.85812,654.36253 445.12866,664.37453 441.12235,670.32753 C 434.78622,675.35053 418.42805,676.57153 413.47801,669.60853 C 412.40843,668.10253 411.32047,664.68653 411.38726,662.40753 C 411.48502,659.03853 415.06059,656.06753 415.80105,651.60853 C 416.86386,645.20853 414.30074,637.97353 417.19489,634.32753 C 417.49011,632.13953 417.11359,629.96853 417.6595,628.08753 C 418.03022,626.81053 419.00203,626.21853 419.28565,625.20853 C 420.27392,621.68353 418.57129,619.24953 418.35547,615.60853 C 418.05249,614.57353 419.01559,614.84853 419.28565,614.40753 C 418.7794,609.92753 419.87319,605.55253 420.2139,601.20853 C 421.00568,591.10453 418.64487,578.25353 418.12412,566.40753 C 417.68081,556.31553 417.99054,545.98953 417.19489,535.92853 C 416.10983,522.22153 417.42139,509.67253 419.75026,498.96753 C 420.8595,493.87353 422.57469,488.86053 423.23581,483.60853 C 423.80495,479.08153 423.25322,474.03253 423.4681,468.96753 C 423.76332,462.02853 425.10779,454.75653 424.62868,447.84853 C 424.26666,442.62753 422.66085,437.52853 422.07332,432.24653 C 420.17809,415.18953 418.58873,360.26053 419.42116,355.45353 C 429.71423,295.95353 440.45447,296.92453 439.26392,278.45353 C 438.97255,273.93053 440.40705,259.38953 438.66767,255.45353 C 433.32173,243.35953 432.09342,237.74053 427.05239,225.85453 C 426.38451,235.22753 417.91118,242.26253 417.53465,251.12053 C 417.27814,257.13253 414.5137,265.35653 413.73065,271.75853 C 413.37057,274.69453 411.54115,277.61953 410.94298,280.87853 C 410.30994,284.32753 410.03408,287.89953 409.31685,291.19853 C 406.36558,304.76153 402.51223,315.58553 399.09443,329.11853 C 397.48088,335.50853 395.66889,343.86353 396.53811,350.71853 C 397.02206,354.53053 399.51355,358.61653 399.79134,363.19853 C 400.05075,367.49053 398.7992,370.93753 398.16425,375.43853 C 398.95505,376.22053 399.98397,376.75853 400.48634,377.83853 C 399.75747,379.32453 397.02305,378.74053 397.46734,381.43853 C 398.77211,381.36453 400.3905,380.54253 401.64882,381.19853 C 402.18411,381.76453 402.036,383.03753 402.57707,383.59853 C 400.9374,384.70353 398.63564,385.12653 397.00174,386.23853 C 397.46828,386.95653 397.13339,388.50353 397.23406,389.59853 C 398.62013,389.08253 400.63927,388.58353 402.34381,389.11953 C 403.41337,389.69353 403.05233,391.74453 403.73764,392.71753 C 398.66853,393.60053 393.27615,395.77053 387.94184,393.67853 C 388.68231,398.43253 397.41408,399.41453 393.98178,404.71753 C 392.3479,404.30353 391.35769,402.68853 389.80028,401.59853 C 386.99907,399.63953 380.74424,396.03053 379.57788,392.95753 C 378.79675,390.89353 379.98344,386.23153 379.34847,382.64053 z"
       id="path2431"
       style="fill:#ffffff;fill-rule:evenodd" /></g><g
     transform="matrix(0.5690448,0,0,0.3559691,169.47496,424.16105)"
     id="g2433"><path
       clip-rule="evenodd"
       d="M 577.17325,382.1964 C 577.86625,378.3904 580.44625,377.1224 580.05225,373.0764 C 579.68925,369.3544 577.21025,365.4104 575.97225,361.3164 C 574.87725,357.6964 572.68525,352.1004 572.61225,348.5964 C 572.57225,346.6784 573.30925,344.7304 572.85225,343.0764 C 570.79725,335.6454 570.36425,323.9184 571.17225,314.0364 C 572.34025,299.7464 570.06625,285.2244 567.81225,272.7564 C 565.95325,262.4714 561.81625,253.6684 561.33325,243.9564 C 560.77025,232.6804 551.92025,222.7644 551.40925,211.4924 C 551.29825,209.0454 550.05325,205.6694 550.22225,203.3454 C 550.63025,197.7414 547.09225,184.1674 543.22225,180.3454 C 535.06525,172.2884 526.22825,170.7864 519.88925,167.0124 C 508.97225,160.5124 504.52325,159.7624 504.52325,159.7624 C 497.22325,157.7624 497.81525,144.5214 498.52325,139.5564 C 502.29125,141.6284 507.06325,142.6964 506.68325,148.9164 C 510.08225,145.2494 505.64625,140.6004 503.80325,139.3164 C 507.78625,138.4924 510.28225,141.1294 512.92325,142.4364 C 511.70025,139.2584 507.66125,137.6184 506.20325,135.4764 C 508.07525,135.5884 509.55325,135.3064 510.52325,134.5164 C 506.41925,134.5394 505.32625,131.5534 504.52325,128.2764 C 508.05925,131.6254 517.27625,132.1534 514.36325,124.4364 C 514.39925,128.9064 509.55025,128.5474 510.28325,123.9564 C 510.74825,121.0444 515.75225,118.6124 515.32325,116.7564 C 514.96925,117.6754 513.62325,118.6354 512.44325,117.9564 C 513.67625,114.0994 514.67125,109.3664 511.72325,106.6764 C 513.29225,105.7654 513.22225,103.2154 514.12325,101.6364 C 515.84325,103.4094 515.22925,108.4924 515.08325,110.7564 C 517.15225,108.1574 516.21025,102.3564 515.08325,99.4764 C 518.37725,100.0234 517.98425,104.6644 517.48325,107.1564 C 521.05725,102.2554 516.48825,98.0494 512.68325,96.3564 C 514.06725,94.0484 513.92525,91.443398 512.68325,88.916398 C 511.47525,86.460398 508.89725,85.478398 509.08325,83.636398 C 509.22725,82.207398 510.63325,81.712398 512.68325,81.476398 C 510.73225,80.540398 509.44525,82.197398 508.12325,82.676398 C 506.33025,78.869398 501.15625,78.443398 498.76325,75.236398 C 498.79425,72.885398 498.18725,71.173398 497.08325,69.956398 C 496.24825,69.471398 497.92425,71.953398 497.56325,73.316398 C 493.85825,68.090398 484.63425,70.547398 480.52325,65.396398 C 479.14625,63.671398 478.76425,61.787398 477.64325,58.676398 C 477.01325,62.667398 479.57525,64.742398 480.52325,66.356398 C 475.29025,65.277398 479.08225,64.978398 475.05625,66.143398 L 475.19925,157.9614 C 475.26925,157.7454 475.33925,157.5284 475.41325,157.3154 C 475.35925,157.8864 475.28425,158.4434 475.19925,158.9944 L 475.19925,372.2494 C 476.44725,372.2344 477.54025,372.5124 478.29325,373.5554 L 477.59225,376.3654 C 475.44925,390.7884 479.24425,403.3434 482.87325,415.7244 C 485.23925,423.8024 489.20925,431.4944 491.03225,440.2044 C 493.83425,453.5834 492.51725,470.6904 497.75225,482.4444 C 499.99625,487.4814 501.56325,491.2804 501.35325,497.5634 C 501.07025,506.0064 499.48925,514.3154 499.91325,523.9634 C 500.47025,536.6294 505.23525,548.1134 508.31325,559.9634 C 511.43625,571.9884 514.29525,584.6784 515.03325,597.6434 C 515.17525,600.1434 514.96225,602.7784 514.79425,605.0844 C 514.73325,605.8244 513.92925,605.8204 513.59325,606.2834 C 515.07525,614.0064 509.17925,617.0174 509.75325,623.8034 C 510.11825,628.1164 514.71425,632.0434 515.03325,637.0044 C 515.22925,640.0594 514.60225,643.4104 513.11325,646.6044 C 513.62625,653.9184 509.21425,663.9304 513.35325,669.8834 C 519.89925,674.9064 536.79925,676.1274 541.91325,669.1644 C 543.01825,667.6584 544.14225,664.2424 544.07325,661.9634 C 543.97225,658.5944 540.27825,655.6234 539.51325,651.1644 C 538.41525,644.7644 541.06325,637.5294 538.07325,633.8834 C 537.76825,631.6954 538.15725,629.5244 537.59325,627.6434 C 537.21025,626.3664 536.20625,625.7744 535.91325,624.7644 C 534.89225,621.2394 536.65125,618.8054 536.87425,615.1644 C 537.18725,614.1294 536.19225,614.4044 535.91325,613.9634 C 536.43625,609.4834 535.30625,605.1084 534.95425,600.7644 C 534.13625,590.6604 536.57525,577.8094 537.11325,565.9634 C 537.57125,555.8714 537.25125,545.5454 538.07325,535.4844 C 539.19425,521.7774 537.83925,509.2284 535.43325,498.5234 C 534.28725,493.4294 532.51525,488.4164 531.83225,483.1644 C 531.24425,478.6374 531.81425,473.5884 531.59225,468.5234 C 531.28725,461.5844 529.89825,454.3124 530.39325,447.4044 C 530.76725,442.1834 532.42625,437.0844 533.03325,431.8024 C 534.99125,414.7454 536.63325,359.8164 535.77325,355.0094 C 525.13925,295.5094 514.04325,296.4804 515.27325,278.0094 C 515.57425,273.4864 514.09225,258.9454 515.88925,255.0094 C 521.41225,242.9154 522.68125,237.2964 527.88925,225.4104 C 528.57925,234.7834 537.33325,241.8184 537.72225,250.6764 C 537.98725,256.6884 540.84325,264.9124 541.65225,271.3144 C 542.02425,274.2504 543.91425,277.1754 544.53225,280.4344 C 545.18625,283.8834 545.47125,287.4554 546.21225,290.7544 C 549.26125,304.3174 553.24225,315.1414 556.77325,328.6744 C 558.44025,335.0644 560.31225,343.4194 559.41425,350.2744 C 558.91425,354.0864 556.34025,358.1724 556.05325,362.7544 C 555.78525,367.0464 557.07825,370.4934 557.73425,374.9944 C 556.91725,375.7764 555.85425,376.3144 555.33525,377.3944 C 556.08825,378.8804 558.91325,378.2964 558.45425,380.9944 C 557.10625,380.9204 555.43425,380.0984 554.13425,380.7544 C 553.58125,381.3204 553.73425,382.5934 553.17525,383.1544 C 554.86925,384.2594 557.24725,384.6824 558.93525,385.7944 C 558.45325,386.5124 558.79925,388.0594 558.69525,389.1544 C 557.26325,388.6384 555.17725,388.1394 553.41625,388.6754 C 552.31125,389.2494 552.68425,391.3004 551.97625,392.2734 C 557.21325,393.1564 562.78425,395.3264 568.29525,393.2344 C 567.53025,397.9884 558.50925,398.9704 562.05525,404.2734 C 563.74325,403.8594 564.76625,402.2444 566.37525,401.1544 C 569.26925,399.1954 575.73125,395.5864 576.93625,392.5134 C 577.74325,390.4494 576.51725,385.7874 577.17325,382.1964 z"
       id="path2435"
       style="fill:#ffffff;fill-rule:evenodd" /><path
       clip-rule="evenodd"
       d="M 379.34847,382.64053 C 378.6777,378.83453 376.1804,377.56653 376.56177,373.52053 C 376.91313,369.79853 379.31266,365.85453 380.51098,361.76053 C 381.57085,358.14053 383.69258,352.54453 383.76324,349.04053 C 383.80196,347.12253 383.08859,345.17453 383.53093,343.52053 C 385.52005,336.08953 385.93916,324.36253 385.15706,314.48053 C 384.02652,300.19053 386.22761,285.66853 388.40935,273.20053 C 390.20876,262.91553 394.2131,254.11253 394.68064,244.40053 C 395.22558,233.12453 403.79184,223.20853 404.28646,211.93653 C 404.3939,209.48953 405.59899,206.11353 405.4354,203.78953 C 405.04048,198.18553 408.46506,184.61153 412.21098,180.78953 C 420.10646,172.73253 428.66014,171.23053 434.7959,167.45653 C 445.3629,160.95653 449.66926,160.20653 449.66926,160.20653 C 456.73522,158.20653 456.16219,144.96553 455.47689,140.00053 C 451.82969,142.07253 447.21069,143.14053 447.57851,149.36053 C 444.28849,145.69353 448.58226,141.04453 450.36618,139.76053 C 446.51087,138.93653 444.0949,141.57353 441.53857,142.88053 C 442.72236,139.70253 446.63187,138.06253 448.04313,135.92053 C 446.23113,136.03253 444.80052,135.75053 443.86162,134.96053 C 447.83404,134.98353 448.892,131.99753 449.66926,128.72053 C 446.24663,132.06953 437.32512,132.59753 440.14473,124.88053 C 440.10989,129.35053 444.80343,128.99153 444.09392,124.40053 C 443.64384,121.48853 438.80026,119.05653 439.2155,117.20053 C 439.55817,118.11953 440.86101,119.07953 442.00318,118.40053 C 440.80972,114.54353 439.8466,109.81053 442.7001,107.12053 C 441.18139,106.20953 441.24917,103.65953 440.37704,102.08053 C 438.71219,103.85353 439.30649,108.93653 439.44782,111.20053 C 437.44516,108.60153 438.35695,102.80053 439.44782,99.92053 C 436.25942,100.46753 436.63984,105.10853 437.12478,107.60053 C 433.66535,102.69953 438.08786,98.49353 441.77087,96.800531 C 440.43124,94.49253 440.56869,91.88753 441.77087,89.360527 C 442.94014,86.904528 445.43548,85.922527 445.25545,84.080527 C 445.11607,82.651528 443.75514,82.156527 441.77087,81.920527 C 443.65932,80.984527 444.90505,82.641527 446.18468,83.120527 C 447.9202,79.313527 452.92831,78.887527 455.24459,75.680527 C 455.21459,73.329527 455.80211,71.617527 456.87072,70.400527 C 457.67896,69.915527 456.05668,72.397527 456.40612,73.760527 C 459.99233,68.534527 468.92061,70.991527 472.8998,65.840527 C 474.23266,64.115527 474.60239,62.231528 475.68746,59.120528 C 476.29728,63.111528 473.81741,65.186527 472.8998,66.800528 C 477.96501,65.721528 474.29459,65.422527 478.19152,66.587527 L 478.05311,158.40553 C 477.98534,158.18953 477.9176,157.97253 477.84597,157.75953 C 477.89823,158.33053 477.97084,158.88753 478.05311,159.43853 L 478.05311,372.69353 C 476.84511,372.67853 475.78716,372.95653 475.05831,373.99953 L 475.73683,376.80953 C 477.81113,391.23253 474.1378,403.78753 470.62514,416.16853 C 468.33501,424.24653 464.49228,431.93853 462.72772,440.64853 C 460.01557,454.02753 461.29034,471.13453 456.22318,482.88853 C 454.05112,487.92553 452.53436,491.72453 452.73761,498.00753 C 453.01154,506.45053 454.54187,514.75953 454.13146,524.40753 C 453.59231,537.07353 448.98008,548.55753 446.00077,560.40753 C 442.97788,572.43253 440.21055,585.12253 439.49621,598.08753 C 439.35878,600.58753 439.56494,603.22253 439.72756,605.52853 C 439.7866,606.26853 440.56482,606.26453 440.89005,606.72753 C 439.45556,614.45053 445.16254,617.46153 444.60693,624.24753 C 444.25363,628.56053 439.80499,632.48753 439.49621,637.44853 C 439.30649,640.50353 439.91339,643.85453 441.35465,647.04853 C 440.85812,654.36253 445.12866,664.37453 441.12235,670.32753 C 434.78622,675.35053 418.42805,676.57153 413.47801,669.60853 C 412.40843,668.10253 411.32047,664.68653 411.38726,662.40753 C 411.48502,659.03853 415.06059,656.06753 415.80105,651.60853 C 416.86386,645.20853 414.30074,637.97353 417.19489,634.32753 C 417.49011,632.13953 417.11359,629.96853 417.6595,628.08753 C 418.03022,626.81053 419.00203,626.21853 419.28565,625.20853 C 420.27392,621.68353 418.57129,619.24953 418.35547,615.60853 C 418.05249,614.57353 419.01559,614.84853 419.28565,614.40753 C 418.7794,609.92753 419.87319,605.55253 420.2139,601.20853 C 421.00568,591.10453 418.64487,578.25353 418.12412,566.40753 C 417.68081,556.31553 417.99054,545.98953 417.19489,535.92853 C 416.10983,522.22153 417.42139,509.67253 419.75026,498.96753 C 420.8595,493.87353 422.57469,488.86053 423.23581,483.60853 C 423.80495,479.08153 423.25322,474.03253 423.4681,468.96753 C 423.76332,462.02853 425.10779,454.75653 424.62868,447.84853 C 424.26666,442.62753 422.66085,437.52853 422.07332,432.24653 C 420.17809,415.18953 418.58873,360.26053 419.42116,355.45353 C 429.71423,295.95353 440.45447,296.92453 439.26392,278.45353 C 438.97255,273.93053 440.40705,259.38953 438.66767,255.45353 C 433.32173,243.35953 432.09342,237.74053 427.05239,225.85453 C 426.38451,235.22753 417.91118,242.26253 417.53465,251.12053 C 417.27814,257.13253 414.5137,265.35653 413.73065,271.75853 C 413.37057,274.69453 411.54115,277.61953 410.94298,280.87853 C 410.30994,284.32753 410.03408,287.89953 409.31685,291.19853 C 406.36558,304.76153 402.51223,315.58553 399.09443,329.11853 C 397.48088,335.50853 395.66889,343.86353 396.53811,350.71853 C 397.02206,354.53053 399.51355,358.61653 399.79134,363.19853 C 400.05075,367.49053 398.7992,370.93753 398.16425,375.43853 C 398.95505,376.22053 399.98397,376.75853 400.48634,377.83853 C 399.75747,379.32453 397.02305,378.74053 397.46734,381.43853 C 398.77211,381.36453 400.3905,380.54253 401.64882,381.19853 C 402.18411,381.76453 402.036,383.03753 402.57707,383.59853 C 400.9374,384.70353 398.63564,385.12653 397.00174,386.23853 C 397.46828,386.95653 397.13339,388.50353 397.23406,389.59853 C 398.62013,389.08253 400.63927,388.58353 402.34381,389.11953 C 403.41337,389.69353 403.05233,391.74453 403.73764,392.71753 C 398.66853,393.60053 393.27615,395.77053 387.94184,393.67853 C 388.68231,398.43253 397.41408,399.41453 393.98178,404.71753 C 392.3479,404.30353 391.35769,402.68853 389.80028,401.59853 C 386.99907,399.63953 380.74424,396.03053 379.57788,392.95753 C 378.79675,390.89353 379.98344,386.23153 379.34847,382.64053 z"
       id="path2437"
       style="fill:#ffffff;fill-rule:evenodd" /></g><rect
     ry="25.262999"
     y="54.108273"
     x="80.519127"
     height="634.53882"
     width="459.07922"
     id="rect3225"
     style="opacity:1;fill:none;fill-opacity:0;stroke:none;stroke-width:4.69999981;stroke-linecap:round;stroke-linejoin:miter;stroke-miterlimit:15.10000038;stroke-dasharray:none;stroke-opacity:1" /></g>








<path
   clip-rule="evenodd"
   d="M 270.6795,613.69874 C 270.6185,614.43874 269.8145,614.43474 269.4785,614.89774 C 270.5645,620.55574 267.6965,623.68774 266.3075,627.62574 L 292.0535,627.62574 C 292.3525,626.43674 292.6725,625.19974 292.7595,623.77874 C 293.0725,622.74374 292.0775,623.01874 291.7985,622.57774 C 292.3215,618.09774 291.1915,613.72274 290.8395,609.37874 C 290.2715,602.36674 291.2725,594.02974 292.1185,585.62574 L 268.1625,585.62574 C 269.4995,592.38474 270.5215,599.27874 270.9195,606.25774 C 271.0605,608.75774 270.8475,611.39274 270.6795,613.69874 z"
   id="ankle_r"
   style="fill:#ffff00;fill-rule:evenodd" /><path
   clip-rule="evenodd"
   d="M 272.58328,503.07415 C 272.55128,504.03015 272.49828,504.98415 272.43728,505.93915 L 307.07428,505.93915 C 306.94128,505.29815 306.80428,504.66315 306.66328,504.03515 C 305.51728,498.94115 303.74528,493.92815 303.06228,488.67615 C 302.47428,484.14915 303.04428,479.10015 302.82228,474.03515 C 302.56928,468.26515 301.58028,462.27015 301.53328,456.44115 L 263.77028,456.44115 C 264.81728,467.41015 265.07228,479.17515 268.98228,487.95515 C 271.22728,492.99215 272.79328,496.79115 272.58328,503.07415 z"
   id="knee_r"
   style="fill:#ffff00;fill-rule:evenodd" /><path
   clip-rule="evenodd"
   d="M 315.80701,223.18547 C 314.78601,220.29647 314.03601,217.36347 313.89801,214.33147 C 313.78701,211.88447 312.54201,208.50847 312.71101,206.18447 C 313.11901,200.58047 309.58101,187.00647 305.71101,183.18447 C 297.55401,175.12747 288.71701,173.62547 282.37801,169.85147 L 282.95001,223.18647 L 315.80701,223.18647 L 315.80701,223.18547 z"
   id="shoulder_r"
   style="fill:#ffff00;fill-rule:evenodd" /><path
   clip-rule="evenodd"
   d="M 308.48485,358.04095 C 308.16385,360.48795 306.99285,363.05095 306.11585,365.78295 L 323.97585,365.78295 C 322.91485,362.57995 321.73685,358.91595 321.68385,356.36095 C 321.64285,354.44295 322.38085,352.49495 321.92385,350.84095 C 320.82085,346.85295 320.18985,341.62495 319.96185,336.11195 L 305.75585,336.11195 C 305.78485,336.22195 305.81485,336.32995 305.84385,336.44095 C 307.50985,342.83095 309.38285,351.18595 308.48485,358.04095 z"
   id="wirst_r"
   style="fill:#ffff00;fill-rule:evenodd" /><path
   clip-rule="evenodd"
   d="M 303.27757,287.73689 C 303.93157,291.18589 304.21657,294.75789 304.95757,298.05689 C 305.23057,299.27689 305.51657,300.46889 305.80357,301.64789 L 329.67257,301.64789 C 328.98657,294.09389 327.77257,286.77589 326.55757,280.05689 C 325.64157,274.98989 324.17257,270.28189 322.86057,265.64789 L 297.65557,265.64789 C 298.62357,270.03389 299.89957,274.67089 300.39757,278.61689 C 300.76957,281.55189 302.65857,284.47789 303.27757,287.73689 z"
   id="elbow_r"
   style="fill:#ffff00;fill-rule:evenodd" /><path
   style="opacity:1;fill:#b9b800;fill-opacity:1;stroke:#ffff00;stroke-width:3.50000000000000000;stroke-linecap:round;stroke-linejoin:miter;stroke-miterlimit:15.10000038000000089;stroke-dasharray:none;stroke-opacity:1"
   d="M 433.3238,198.57106 C 433.24552,198.02686 433.26328,197.1227 433.36327,196.56183 C 433.46326,196.00095 433.8477,182.21056 434.21758,165.91649 C 434.70445,144.46845 435.35702,135.17229 436.58166,132.23838 C 437.51199,130.00949 438.27322,126.46244 438.27322,124.35607 C 438.27322,119.89972 435.52415,115.30564 434.16929,117.49784 C 432.24076,120.61822 428.65899,136.01399 428.65899,141.18296 C 428.65899,145.06751 428.21328,146.55775 427.15677,146.20559 C 426.33055,145.93017 425.67899,145.20911 425.70888,144.60322 C 426.05988,137.48552 428.16161,123.24141 429.81473,116.77611 C 431.62129,109.71084 432.41014,108.38414 435.85768,106.61333 C 442.18021,103.36579 442.54981,102.58388 440.00005,97.849273 C 437.41981,93.058013 438.24251,90.470323 443.1343,87.991083 C 449.51829,84.755573 455.96488,93.791123 450.89189,98.864113 C 448.09725,101.65874 448.69537,102.99224 453.94475,105.67028 C 456.7992,107.12649 459.31414,109.48917 460.04712,111.40315 C 464.04079,121.8315 467.61806,149.89246 464.56459,146.83899 C 463.76452,146.03893 463.14069,143.60875 463.17822,141.43853 C 463.24423,137.62316 458.24778,118.00888 456.85511,116.61621 C 456.47789,116.23897 455.65302,116.72584 455.02215,117.69816 C 452.42772,121.69676 452.43914,125.40961 455.06886,132.85861 C 457.31224,139.21324 457.65619,142.03882 457.06184,149.23081 C 456.66676,154.01146 456.78741,166.84612 457.32993,177.75226 C 457.87243,188.6584 457.86263,198.09536 457.30812,198.72329 C 455.309,200.98705 453.9639,197.45372 453.43318,188.54433 C 452.75325,177.1301 450.89083,164.67611 448.53065,155.76117 C 447.51589,151.92832 446.68567,147.46671 446.68567,145.84651 C 446.68567,144.22632 446.14487,142.9007 445.48389,142.9007 C 444.82291,142.9007 444.28211,144.20901 444.28211,145.80807 C 444.28211,147.40715 443.43412,152.02546 442.39771,156.07102 C 441.36126,160.11659 440.49584,165.16265 440.47449,167.28452 C 440.45317,169.4064 439.71836,174.11688 438.8416,177.75226 C 437.96483,181.38764 437.34309,187.59817 437.45992,191.55344 C 437.63697,197.54735 437.32213,198.81276 435.56922,199.15267 C 434.41251,199.37699 433.40206,199.11525 433.32379,198.57105 L 433.3238,198.57106 z"
   id="small" /><path
   style="opacity:1;fill:#b9b900;fill-opacity:1;stroke:#ffff00;stroke-width:4.20600000000000041;stroke-linecap:round;stroke-linejoin:miter;stroke-miterlimit:15.10000038000000089;stroke-dasharray:none;stroke-opacity:1"
   d="M 419.79134,413.53648 C 419.46299,413.00518 419.77352,410.16598 420.48142,407.22718 C 421.18934,404.28838 421.96251,393.23108 422.19958,382.65538 C 422.43666,372.07978 422.74941,359.37098 422.89458,354.41363 C 423.03976,349.4563 422.98611,339.94757 422.77535,333.28311 C 422.42723,322.27638 422.69404,320.45916 425.68632,313.45377 C 430.25677,302.75365 430.70289,297.08145 427.47214,290.74865 C 425.01717,285.93644 424.77395,285.77683 423.23804,287.96964 C 422.34184,289.24917 419.36139,296.94637 416.61486,305.07453 C 412.92875,315.98322 411.81713,320.89745 412.36949,323.84179 C 413.39078,329.2857 412.10918,333.63114 409.2628,334.37549 C 406.20807,335.17431 404.0074,330.16936 405.8772,326.67561 C 406.56694,325.38678 407.60912,319.06779 408.19312,312.6334 C 408.77713,306.19901 410.42249,297.68971 411.84948,293.72384 C 413.27646,289.75797 415.07996,284.29023 415.8572,281.5733 C 417.81826,274.71827 419.25062,273.35329 427.7947,270.19749 C 431.90544,268.67916 435.66609,266.86185 436.15171,266.15903 C 437.58288,264.08771 437.19937,261.87672 435.40894,261.87672 C 433.79745,261.87672 432.86459,260.02056 431.04973,253.20307 C 428.73759,244.51752 442.90467,238.21701 453.05468,243.41685 C 455.17001,244.50055 457.2981,245.98775 457.78371,246.72174 C 459.33123,249.06078 458.76905,255.63054 456.85786,257.54174 C 455.84278,258.55682 454.89638,259.81224 454.75475,260.33159 C 454.61311,260.85092 454.09162,261.14063 453.59589,260.97539 C 452.44133,260.59053 452.45491,264.46153 453.61429,266.22142 C 454.09989,266.95854 455.84922,267.96685 457.50167,268.46211 C 459.15411,268.95733 463.07357,270.44825 466.21157,271.77523 C 471.25625,273.90849 472.11934,274.83206 473.66383,279.74965 C 474.62457,282.80861 476.75778,288.90006 478.40429,293.28621 C 481.04526,300.32145 483.6675,316.71918 484.33586,330.37807 C 484.52144,334.17073 484.25356,334.55221 481.61146,334.25794 C 479.99985,334.07843 478.4687,333.71903 478.20892,333.45924 C 477.9491,333.19945 477.76161,329.56071 477.79222,325.37315 C 477.8336,319.71013 476.72137,314.37242 473.45104,304.53984 C 471.0328,297.26909 468.1324,290.10061 467.00575,288.6099 L 464.95726,285.89952 L 462.3313,290.35019 C 458.9511,296.07924 459.51489,302.92465 464.24231,313.55318 C 467.52069,320.92386 467.68651,322.07692 467.18031,333.98341 C 466.88526,340.92367 466.75144,350.11728 466.88295,354.41363 C 467.0145,358.70998 467.34338,370.72928 467.61386,381.12318 C 467.88433,391.51708 468.69814,402.78398 469.42228,406.16058 C 470.14646,409.53718 470.43263,412.79548 470.05827,413.40118 C 469.68389,414.00698 467.24631,414.50258 464.64141,414.50258 L 459.90522,414.50258 L 459.69097,408.19318 C 459.57312,404.72308 459.58949,400.80228 459.72732,399.48028 C 460.39015,393.12288 459.85765,388.19958 457.97243,383.25628 C 456.83807,380.28188 455.5128,374.06268 455.02736,369.43588 C 454.00832,359.72248 452.39291,353.23829 448.35996,342.6725 C 446.77811,338.52831 445.48389,333.49398 445.48389,331.48513 C 445.48389,329.46739 444.9695,328.15058 444.33459,328.54297 C 443.70252,328.93362 443.46222,329.97491 443.80068,330.85692 C 444.1391,331.73893 443.27201,335.6424 441.87372,339.53132 C 437.81526,350.8188 434.66788,363.98128 434.66788,369.66668 C 434.66788,372.55658 433.91966,376.71178 433.00515,378.90058 C 429.85487,386.44018 428.5709,394.96768 430.0854,398.29158 C 431.05148,400.41188 431.09439,401.73188 430.22555,402.60068 C 429.53313,403.29308 429.24141,406.23428 429.5732,409.17788 L 430.17332,414.50258 L 425.2809,414.50258 C 422.59002,414.50258 420.11974,414.06778 419.79136,413.53648 L 419.79134,413.53648 z"
   id="medium" /><path
   style="opacity:1;fill:#b9b900;fill-opacity:1;stroke:#ffff00;stroke-width:4.20622301000000043;stroke-linecap:round;stroke-linejoin:miter;stroke-miterlimit:15.10000038000000089;stroke-dasharray:none;stroke-opacity:1"
   d="M 404.74879,663.37348 C 403.66329,662.68618 403.39815,661.52648 403.99734,660.08698 C 406.87191,653.18138 408.06604,638.43888 406.83864,625.00978 C 405.76083,613.21698 405.86463,610.12678 407.54841,603.88418 C 410.02159,594.71478 410.20793,586.00828 408.31939,567.85518 C 406.89055,554.12108 406.93695,553.27168 409.5004,546.22318 C 410.96794,542.18808 413.71575,536.13888 415.60669,532.78048 C 420.22326,524.58148 420.15269,518.87128 415.34108,511.28408 L 411.63737,505.44398 L 408.94364,508.82228 C 407.46212,510.68028 404.96499,516.04168 403.39449,520.73648 C 401.82397,525.43118 399.02075,532.71098 397.16506,536.91368 C 394.3615,543.26328 393.84327,545.95328 394.0997,552.82628 C 394.2694,557.37548 394.85254,561.10248 395.39549,561.10848 C 395.93846,561.11448 395.57147,561.93068 394.58,562.92208 C 393.58851,563.91358 391.9275,564.72478 390.88883,564.72478 C 389.85017,564.72478 389.00032,565.28458 389.00032,565.96888 C 389.00032,566.81348 388.27582,566.82518 386.74382,566.00528 C 383.67578,564.36328 382.83395,558.90108 385.00258,554.70738 C 385.98406,552.80948 387.23893,545.49898 387.79124,538.46178 C 388.81173,525.45888 391.24102,516.56528 396.84252,505.32448 C 398.4781,502.04228 399.81632,498.11108 399.81632,496.58838 C 399.81632,492.15538 403.55388,489.56728 415.89171,485.45698 C 427.05786,481.73698 427.45721,481.48038 427.45721,478.02678 C 427.45721,475.93128 426.95592,474.75938 426.24695,475.19758 C 425.58132,475.60898 424.67435,474.96488 424.2315,473.76628 C 423.78867,472.56768 422.94216,471.26048 422.3504,470.86148 C 420.83121,469.83698 419.16537,461.77118 419.89598,458.97728 C 420.23205,457.69208 423.01726,455.16408 426.08525,453.35958 C 433.40207,449.05608 444.70063,448.78348 452.3147,452.72678 C 458.20722,455.77848 461.59737,459.93388 459.88143,462.00148 C 459.24498,462.76828 459.05495,463.72638 459.45909,464.13048 C 460.72994,465.40138 458.73601,470.98608 457.01141,470.98608 C 456.106,470.98608 455.44028,471.93248 455.53208,473.08918 C 455.64172,474.47018 454.97681,475.07108 453.59589,474.83918 C 452.07474,474.58378 451.49278,475.29128 451.49278,477.39608 C 451.49278,481.28258 452.84091,482.13108 464.11145,485.33778 C 476.66536,488.90968 478.75995,490.34908 480.38506,496.52068 C 481.12526,499.33158 482.67328,503.25798 483.82517,505.24588 C 488.10446,512.63128 492.35229,527.35708 492.40557,534.99138 C 492.46217,543.10748 493.65643,549.98208 496.01699,555.78088 C 497.23848,558.78158 497.20502,560.08798 495.83441,562.90288 C 494.91125,564.79878 493.40462,566.59528 492.48639,566.89508 C 491.47507,567.22528 491.14768,566.90498 491.65598,566.08248 C 492.19614,565.20858 491.39937,564.72478 489.41971,564.72478 C 487.72826,564.72478 486.3004,564.31918 486.24671,563.82348 C 485.52497,557.16058 485.57375,555.15398 486.53637,551.90888 C 487.50731,548.63588 486.73577,545.77028 480.99547,531.32938 C 477.32758,522.10208 474.30711,514.07878 474.28334,513.49988 C 474.22365,512.04678 468.5344,505.20028 467.95524,505.88468 C 460.1401,515.11878 458.97565,524.29258 464.46953,533.34568 C 466.3189,536.39318 468.99076,541.96028 470.40697,545.71698 C 472.84725,552.19038 472.9104,553.32128 471.6144,567.34908 C 469.82264,586.74258 470.01435,594.34568 472.52926,603.63648 C 474.34005,610.32608 474.43703,613.04228 473.2909,624.96818 C 472.01091,638.28688 473.2121,653.01848 476.15443,660.08698 C 477.40795,663.09848 474.99839,664.43558 468.31767,664.43558 C 460.26119,664.43558 459.08221,663.29188 460.7392,657.08398 C 461.81909,653.03808 461.7717,651.49318 460.51241,649.69538 C 459.18603,647.80168 459.20056,646.75128 460.5994,643.40338 C 462.61532,638.57858 461.93948,634.42908 457.29995,623.14618 C 454.78019,617.01828 453.89633,612.87228 453.89633,607.18038 C 453.89633,602.65678 453.20345,598.39608 452.21316,596.83008 C 451.2874,595.36608 449.96491,591.44008 449.27427,588.10558 C 448.58361,584.77098 446.36708,578.55178 444.34861,574.28508 C 442.28951,569.93258 440.67825,564.54928 440.67772,562.02078 C 440.67721,559.54208 440.13597,557.51408 439.47499,557.51408 C 438.81402,557.51408 438.27322,559.74558 438.27322,562.47298 C 438.27322,565.57838 436.9575,570.02108 434.75317,574.35888 C 432.81713,578.16878 430.67479,584.30618 429.99239,587.99768 C 429.31001,591.68908 427.93775,596.28328 426.94297,598.20698 C 425.70918,600.59288 425.34592,603.56268 425.80012,607.55068 C 426.34158,612.30518 425.80067,614.96768 422.90328,621.80928 C 418.38659,632.47438 417.3491,638.30328 419.05004,643.45728 C 420.01455,646.37968 420.02916,648.21168 419.10178,649.94448 C 418.2554,651.52598 418.17871,654.00268 418.8796,657.12208 C 419.59294,660.29678 419.51836,662.31628 418.656,663.17868 C 417.10346,664.73118 407.114,664.87118 404.74875,663.37348 L 404.74879,663.37348 z"
   id="large" /></svg>